<svg height="2048pt" preserveAspectRatio="xMidYMid meet" viewBox="0 0 2048 2048" width="2048pt" xmlns="http://www.w3.org/2000/svg"><path d="m6625 18714c-418-7-784-17-813-23-67-13-105-40-131-94-20-42-21-56-21-563 0-285 7-1212 15-2059s15-1590 15-1651v-111l-865-737c-706-603-868-745-885-780-30-63-27-131 11-202 37-72 62-100 114-127 40-22 45-22 1065-30 564-5 1027-11 1029-13 3-3 8-282 13-622 4-339 17-1337 28-2217 24-1911 24-1895 8-1899-370-104-661-257-903-474-347-310-562-699-647-1172-19-108-17-499 4-605 9-44 15-81 14-82s-30 5-66 12c-149 32-341 48-515 42-974-33-1781-654-1967-1512-13-62-21-147-25-270-4-153-2-198 15-302 53-310 199-606 415-847 124-137 373-328 533-409 81-41 242-98 353-127 196-49 140-48 2151-38 2404 13 6936 13 9340 0 2011-10 1955-11 2151 38 111 29 272 86 353 127 160 81 409 272 533 409 216 241 362 537 415 847 17 104 19 149 15 302-4 123-12 208-25 270-186 858-993 1479-1967 1512-174 6-366-10-515-42-36-7-65-13-66-12s5 38 14 82c21 106 23 497 4 605-85 473-300 862-647 1172-242 217-533 370-902 474-17 4-17-12 7 1899 11 880 24 1878 28 2217 5 340 10 619 13 622 2 2 465 8 1029 13 1020 8 1025 8 1065 30 52 27 77 55 114 127 38 71 41 139 11 202-17 35-546 490-3090 2661-1689 1440-3089 2628-3113 2641-59 33-157 28-213-10-21-14-491-412-1044-883l-1005-858-7 529c-4 291-11 813-16 1159-7 569-9 634-25 670-24 53-53 84-102 106-48 22-153 23-1300 3zm1065-381c0-21 5-418 10-883s10-995 10-1179l2-335-128-108c-71-59-132-108-136-108-5 0-7 503-6 1118 3 1224 6 1166-56 1200-28 15-82 16-539 15-563-2-544 0-572-67-13-32-10-937 10-2742l5-520-119-101-119-102-6 132c-3 73-8 512-11 977-7 1153-14 1948-21 2363-3 191-4 347-2 348 6 2 1306 26 1491 27l187 2zm3638-1710c598-510 1863-1589 2811-2397l1724-1471-859-7c-550-5-878-12-912-19-72-14-131-71-162-154-19-54-22-84-26-280-6-252-28-2118-45-3600-6-555-13-1020-15-1032-4-22-8-23-119-23-141 0-303-21-459-59l-119-29 6 247c4 135 25 1409 47 2831 23 1422 43 2609 46 2638l5 52h393c306 0 396 3 410 13 46 34 42 38-739 693-2558 2145-3066 2569-3075 2569s-517-424-3075-2569c-781-655-785-659-739-693 14-10 104-13 410-13h393l5-52c3-29 23-1216 46-2638 22-1422 43-2696 47-2831l6-247-119 29c-156 38-318 59-459 59-111 0-115 1-119 23-2 12-9 477-15 1032-17 1482-39 3348-45 3600-4 196-7 226-26 280-31 83-90 140-162 154-34 7-362 14-912 19l-859 7 2474 2110c1360 1161 2625 2239 2809 2397s336 287 338 287c2 1 492-416 1090-926zm-695-7238c779-101 1396-494 1687-1073 58-115 100-238 131-382 20-92 23-133 23-330-1-242-12-340-60-544-26-108-26-110-8-144 20-37 65-75 100-86 17-5 48 10 125 60 319 207 774 344 1144 344 792 0 1472-541 1626-1294 27-130 35-322 20-452-12-106-95-467-130-568-12-33-21-68-21-79 0-28 43-81 81-99 30-15 36-15 93 7 110 41 247 74 471 111 195 33 240 37 395 37 190 0 320-16 478-58 526-141 938-491 1108-942 85-225 96-505 28-741-33-118-120-289-198-393-156-206-437-415-636-473l-55-15 45 37c94 77 224 210 286 292 84 111 167 279 201 405 24 89 27 117 27 260-1 131-5 174-22 237-107 392-423 701-875 857-216 74-409 105-662 104-383 0-761-104-1069-293l-65-39 26 67c249 658 165 1324-227 1807-85 104-227 235-332 305-653 437-1562 388-2310-125l-106-73 24 71c95 277 137 597 114 872-22 277-87 509-206 745-249 491-692 822-1212 904-238 38-626 38-864 0-690-109-1233-657-1383-1394-74-361-46-763 79-1127l24-71-106 73c-519 356-1138 497-1687 384-509-104-924-415-1146-858-222-444-235-987-36-1513l26-67-65 39c-434 267-1003 359-1523 248-474-101-880-401-1030-763-62-147-74-213-75-390 0-143 3-171 27-260 34-126 117-294 201-405 62-82 192-215 286-292l45-37-55 15c-134 39-341 169-481 302-217 206-353 464-390 739-23 171 4 404 65 566 170 451 582 801 1108 942 158 42 288 58 478 58 155 0 200-4 395-37 224-37 361-70 471-111 57-22 63-22 93-7 38 18 81 71 81 99 0 11-9 46-21 79-35 101-118 462-130 568-15 130-7 322 20 452 154 753 834 1294 1626 1294 370 0 825-137 1144-344 77-50 108-65 125-60 35 11 80 49 100 86 18 34 18 36-8 144-48 204-59 302-60 544 0 197 3 238 23 330 115 534 470 959 1026 1226 279 134 613 221 926 242 169 11 519 4 652-13z" transform="matrix(.1 0 0 -.1 0 2048)"/></svg>